{
  "accessors": [
    {
      "bufferView": 2,
      "componentType": 5126,
      "count": 4082,
      "max": [
        177.17440795898438,
        74.15748596191406,
        503.3307189941406
      ],
      "min": [
        -297.5086669921875,
        -49.05825424194336,
        249.91653442382813
      ],
      "type": "VEC3"
    },
    {
      "bufferView": 2,
      "byteOffset": 48984,
      "componentType": 5126,
      "count": 4082,
      "max": [
        0.9993885159492493,
        0.9999212622642517,
        0.9994918704032898
      ],
      "min": [
        -0.9993885159492493,
        -0.9998359680175781,
        -0.9995386600494385
      ],
      "type": "VEC3"
    },
    {
      "bufferView": 3,
      "componentType": 5126,
      "count": 4082,
      "max": [
        0.9999681115150452,
        0.9997220635414124,
        0.9956403374671936,
        1.0
      ],
      "min": [
        -0.9999620318412781,
        -0.9990257620811462,
        -0.9997861385345459,
        -1.0
      ],
      "type": "VEC4"
    },
    {
      "bufferView": 1,
      "componentType": 5126,
      "count": 4082,
      "max": [
        0.7646480202674866,
        1.9981820583343506
      ],
      "min": [
        -0.7143549919128418,
        1.1640629768371582
      ],
      "type": "VEC2"
    },
    {
      "bufferView": 0,
      "componentType": 5125,
      "count": 9999,
      "type": "SCALAR"
    },
    {
      "bufferView": 2,
      "byteOffset": 97968,
      "componentType": 5126,
      "count": 3921,
      "max": [
        297.5086669921875,
        76.98188781738281,
        547.4842529296875
      ],
      "min": [
        -286.7582702636719,
        -62.011810302734375,
        135.04920959472656
      ],
      "type": "VEC3"
    },
    {
      "bufferView": 2,
      "byteOffset": 145020,
      "componentType": 5126,
      "count": 3921,
      "max": [
        0.999297022819519,
        0.9999158382415771,
        0.9990494251251221
      ],
      "min": [
        -0.9994634389877319,
        -0.999695897102356,
        -0.998347818851471
      ],
      "type": "VEC3"
    },
    {
      "bufferView": 3,
      "byteOffset": 65312,
      "componentType": 5126,
      "count": 3921,
      "max": [
        1.0,
        0.9998930096626282,
        0.9939931631088257,
        1.0
      ],
      "min": [
        -0.9999862313270569,
        -0.9999594688415527,
        -0.9997859597206116,
        -1.0
      ],
      "type": "VEC4"
    },
    {
      "bufferView": 1,
      "byteOffset": 32656,
      "componentType": 5126,
      "count": 3921,
      "max": [
        0.7646480202674866,
        1.9972150325775146
      ],
      "min": [
        -0.9975590109825134,
        1.0078129768371582
      ],
      "type": "VEC2"
    },
    {
      "bufferView": 0,
      "byteOffset": 39996,
      "componentType": 5125,
      "count": 9999,
      "type": "SCALAR"
    },
    {
      "bufferView": 2,
      "byteOffset": 192072,
      "componentType": 5126,
      "count": 4216,
      "max": [
        297.1122131347656,
        58.488189697265625,
        526.8661499023438
      ],
      "min": [
        -127.10236358642578,
        -62.011810302734375,
        5.3596110343933105
      ],
      "type": "VEC3"
    },
    {
      "bufferView": 2,
      "byteOffset": 242664,
      "componentType": 5126,
      "count": 4216,
      "max": [
        0.9995364546775818,
        0.9999921917915344,
        0.9990493655204773
      ],
      "min": [
        -0.999755859375,
        -0.999695897102356,
        -0.9995095729827881
      ],
      "type": "VEC3"
    },
    {
      "bufferView": 3,
      "byteOffset": 128048,
      "componentType": 5126,
      "count": 4216,
      "max": [
        0.999956488609314,
        0.999902069568634,
        0.9996553063392639,
        1.0
      ],
      "min": [
        -0.9997163414955139,
        -0.9993450045585632,
        -0.999630868434906,
        -1.0
      ],
      "type": "VEC4"
    },
    {
      "bufferView": 1,
      "byteOffset": 64024,
      "componentType": 5126,
      "count": 4216,
      "max": [
        0.9985349774360657,
        1.9989069700241089
      ],
      "min": [
        -0.6958010196685791,
        1.0
      ],
      "type": "VEC2"
    },
    {
      "bufferView": 0,
      "byteOffset": 79992,
      "componentType": 5125,
      "count": 9999,
      "type": "SCALAR"
    },
    {
      "bufferView": 2,
      "byteOffset": 293256,
      "componentType": 5126,
      "count": 4062,
      "max": [
        204.22442626953125,
        76.98188781738281,
        491.6299133300781
      ],
      "min": [
        -204.22442626953125,
        -84.68623352050781,
        -0.8222630023956299
      ],
      "type": "VEC3"
    },
    {
      "bufferView": 2,
      "byteOffset": 342000,
      "componentType": 5126,
      "count": 4062,
      "max": [
        0.9999057054519653,
        0.9999921321868896,
        0.9996508359909058
      ],
      "min": [
        -0.9998143911361694,
        -0.9992613196372986,
        -0.9998956322669983
      ],
      "type": "VEC3"
    },
    {
      "bufferView": 3,
      "byteOffset": 195504,
      "componentType": 5126,
      "count": 4062,
      "max": [
        1.0,
        0.9998025298118591,
        0.9996553063392639,
        1.0
      ],
      "min": [
        -1.0,
        -0.9994044303894043,
        -0.999630868434906,
        -1.0
      ],
      "type": "VEC4"
    },
    {
      "bufferView": 1,
      "byteOffset": 97752,
      "componentType": 5126,
      "count": 4062,
      "max": [
        0.9975590109825134,
        1.9984279870986938
      ],
      "min": [
        -0.9892579913139343,
        1.0
      ],
      "type": "VEC2"
    },
    {
      "bufferView": 0,
      "byteOffset": 119988,
      "componentType": 5125,
      "count": 9999,
      "type": "SCALAR"
    },
    {
      "bufferView": 2,
      "byteOffset": 390744,
      "componentType": 5126,
      "count": 1790,
      "max": [
        126.69488525390625,
        63.335044860839844,
        455.7441101074219
      ],
      "min": [
        -131.97637939453125,
        -53.3633918762207,
        0.9201700091362
      ],
      "type": "VEC3"
    },
    {
      "bufferView": 2,
      "byteOffset": 412224,
      "componentType": 5126,
      "count": 1790,
      "max": [
        0.9998146295547485,
        0.9997801780700684,
        0.999650776386261
      ],
      "min": [
        -0.9998146295547485,
        -0.999555230140686,
        -0.9998946785926819
      ],
      "type": "VEC3"
    },
    {
      "bufferView": 3,
      "byteOffset": 260496,
      "componentType": 5126,
      "count": 1790,
      "max": [
        0.9998759031295776,
        0.999902069568634,
        0.9962767958641052,
        1.0
      ],
      "min": [
        -0.9999892115592957,
        -0.999345064163208,
        -0.9989091753959656,
        -1.0
      ],
      "type": "VEC4"
    },
    {
      "bufferView": 1,
      "byteOffset": 130248,
      "componentType": 5126,
      "count": 1790,
      "max": [
        0.9975590109825134,
        1.960541009902954
      ],
      "min": [
        -0.5341799855232239,
        1.0014649629592896
      ],
      "type": "VEC2"
    },
    {
      "bufferView": 0,
      "byteOffset": 159984,
      "componentType": 5125,
      "count": 4344,
      "type": "SCALAR"
    },
    {
      "bufferView": 2,
      "byteOffset": 433704,
      "componentType": 5126,
      "count": 3687,
      "max": [
        186.757080078125,
        158.87677001953125,
        573.5197143554688
      ],
      "min": [
        -186.757080078125,
        -66.95748138427734,
        362.4539489746094
      ],
      "type": "VEC3"
    },
    {
      "bufferView": 2,
      "byteOffset": 477948,
      "componentType": 5126,
      "count": 3687,
      "max": [
        0.997903048992157,
        1.0,
        0.9998317956924438
      ],
      "min": [
        -0.9991650581359863,
        -1.0,
        -0.999887228012085
      ],
      "type": "VEC3"
    },
    {
      "bufferView": 3,
      "byteOffset": 289136,
      "componentType": 5126,
      "count": 3687,
      "max": [
        1.0,
        1.0,
        0.9960849285125732,
        1.0
      ],
      "min": [
        -0.999637246131897,
        -1.0,
        -0.9999179840087891,
        -1.0
      ],
      "type": "VEC4"
    },
    {
      "bufferView": 1,
      "byteOffset": 144568,
      "componentType": 5126,
      "count": 3687,
      "max": [
        0.9975590109825134,
        1.9986050128936768
      ],
      "min": [
        -0.9965819716453552,
        1.00341796875
      ],
      "type": "VEC2"
    },
    {
      "bufferView": 0,
      "byteOffset": 177360,
      "componentType": 5125,
      "count": 9999,
      "type": "SCALAR"
    },
    {
      "bufferView": 2,
      "byteOffset": 522192,
      "componentType": 5126,
      "count": 788,
      "max": [
        186.757080078125,
        158.87677001953125,
        573.5197143554688
      ],
      "min": [
        -180.44607543945313,
        -66.95748138427734,
        378.9452819824219
      ],
      "type": "VEC3"
    },
    {
      "bufferView": 2,
      "byteOffset": 531648,
      "componentType": 5126,
      "count": 788,
      "max": [
        0.9987684488296509,
        1.0,
        0.9991614818572998
      ],
      "min": [
        -0.9981410503387451,
        -1.0,
        -0.999887228012085
      ],
      "type": "VEC3"
    },
    {
      "bufferView": 3,
      "byteOffset": 348128,
      "componentType": 5126,
      "count": 788,
      "max": [
        0.9988137483596802,
        1.0,
        0.9907395243644714,
        1.0
      ],
      "min": [
        -0.999887228012085,
        -1.0,
        -0.9821848273277283,
        -1.0
      ],
      "type": "VEC4"
    },
    {
      "bufferView": 1,
      "byteOffset": 174064,
      "componentType": 5126,
      "count": 788,
      "max": [
        0.9975590109825134,
        1.9972460269927979
      ],
      "min": [
        0.003407000098377466,
        1.0063480138778687
      ],
      "type": "VEC2"
    },
    {
      "bufferView": 0,
      "byteOffset": 217356,
      "componentType": 5125,
      "count": 2025,
      "type": "SCALAR"
    },
    {
      "bufferView": 2,
      "byteOffset": 541104,
      "componentType": 5126,
      "count": 92,
      "max": [
        15.548700332641602,
        -30.663898468017578,
        509.3740234375
      ],
      "min": [
        -15.548702239990234,
        -35.26000213623047,
        499.4370422363281
      ],
      "type": "VEC3"
    },
    {
      "bufferView": 2,
      "byteOffset": 542208,
      "componentType": 5126,
      "count": 92,
      "max": [
        0.9606615304946899,
        -0.2630070447921753,
        0.946295976638794
      ],
      "min": [
        -0.9607203006744385,
        -1.0,
        -0.9462835192680359
      ],
      "type": "VEC3"
    },
    {
      "bufferView": 1,
      "byteOffset": 180368,
      "componentType": 5126,
      "count": 92,
      "max": [
        0.19116200506687164,
        1.997704029083252
      ],
      "min": [
        -0.8486329913139343,
        1.9593509435653687
      ],
      "type": "VEC2"
    },
    {
      "bufferView": 0,
      "byteOffset": 225456,
      "componentType": 5125,
      "count": 324,
      "type": "SCALAR"
    }
  ],
  "asset": {
    "extras": {
      "author": "3D only (https://sketchfab.com/ateamodels3d)",
      "license": "CC-BY-4.0 (http://creativecommons.org/licenses/by/4.0/)",
      "source": "https://sketchfab.com/3d-models/autobot-67ef6d5c25db493e8d59ad259332056c",
      "title": "Autobot"
    },
    "generator": "Sketchfab-12.2.0",
    "version": "2.0"
  },
  "bufferViews": [
    {
      "buffer": 0,
      "byteLength": 226752,
      "name": "floatBufferViews",
      "target": 34963
    },
    {
      "buffer": 0,
      "byteLength": 181104,
      "byteOffset": 226752,
      "byteStride": 8,
      "name": "floatBufferViews",
      "target": 34962
    },
    {
      "buffer": 0,
      "byteLength": 543312,
      "byteOffset": 407856,
      "byteStride": 12,
      "name": "floatBufferViews",
      "target": 34962
    },
    {
      "buffer": 0,
      "byteLength": 360736,
      "byteOffset": 951168,
      "byteStride": 16,
      "name": "floatBufferViews",
      "target": 34962
    }
  ],
  "buffers": [
    {
      "byteLength": 1311904,
      "uri": "scene.bin"
    }
  ],
  "images": [
    {
      "uri": "textures/Material__105_baseColor.png"
    },
    {
      "uri": "textures/Material__105_normal.png"
    },
    {
      "uri": "textures/Material__106_baseColor.png"
    }
  ],
  "materials": [
    {
      "doubleSided": true,
      "emissiveTexture": {
        "index": 0
      },
      "name": "Material__105",
      "normalTexture": {
        "index": 1
      },
      "pbrMetallicRoughness": {
        "baseColorTexture": {
          "index": 0
        },
        "metallicFactor": 0.0
      }
    },
    {
      "doubleSided": true,
      "emissiveTexture": {
        "index": 2
      },
      "name": "Material__106",
      "normalTexture": {
        "index": 1
      },
      "pbrMetallicRoughness": {
        "baseColorTexture": {
          "index": 2
        },
        "metallicFactor": 0.0
      }
    },
    {
      "doubleSided": true,
      "emissiveTexture": {
        "index": 0
      },
      "name": "Material__107",
      "pbrMetallicRoughness": {
        "baseColorTexture": {
          "index": 0
        },
        "metallicFactor": 0.0
      }
    }
  ],
  "meshes": [
    {
      "name": "Object_0",
      "primitives": [
        {
          "attributes": {
            "NORMAL": 1,
            "POSITION": 0,
            "TANGENT": 2,
            "TEXCOORD_0": 3
          },
          "indices": 4,
          "material": 0,
          "mode": 4
        }
      ]
    },
    {
      "name": "Object_1",
      "primitives": [
        {
          "attributes": {
            "NORMAL": 6,
            "POSITION": 5,
            "TANGENT": 7,
            "TEXCOORD_0": 8
          },
          "indices": 9,
          "material": 0,
          "mode": 4
        }
      ]
    },
    {
      "name": "Object_2",
      "primitives": [
        {
          "attributes": {
            "NORMAL": 11,
            "POSITION": 10,
            "TANGENT": 12,
            "TEXCOORD_0": 13
          },
          "indices": 14,
          "material": 0,
          "mode": 4
        }
      ]
    },
    {
      "name": "Object_3",
      "primitives": [
        {
          "attributes": {
            "NORMAL": 16,
            "POSITION": 15,
            "TANGENT": 17,
            "TEXCOORD_0": 18
          },
          "indices": 19,
          "material": 0,
          "mode": 4
        }
      ]
    },
    {
      "name": "Object_4",
      "primitives": [
        {
          "attributes": {
            "NORMAL": 21,
            "POSITION": 20,
            "TANGENT": 22,
            "TEXCOORD_0": 23
          },
          "indices": 24,
          "material": 0,
          "mode": 4
        }
      ]
    },
    {
      "name": "Object_5",
      "primitives": [
        {
          "attributes": {
            "NORMAL": 26,
            "POSITION": 25,
            "TANGENT": 27,
            "TEXCOORD_0": 28
          },
          "indices": 29,
          "material": 1,
          "mode": 4
        }
      ]
    },
    {
      "name": "Object_6",
      "primitives": [
        {
          "attributes": {
            "NORMAL": 31,
            "POSITION": 30,
            "TANGENT": 32,
            "TEXCOORD_0": 33
          },
          "indices": 34,
          "material": 1,
          "mode": 4
        }
      ]
    },
    {
      "name": "Object_7",
      "primitives": [
        {
          "attributes": {
            "NORMAL": 36,
            "POSITION": 35,
            "TEXCOORD_0": 37
          },
          "indices": 38,
          "material": 2,
          "mode": 4
        }
      ]
    }
  ],
  "nodes": [
    {
      "children": [
        1
      ],
      "matrix": [
        0.002329426584765315,
        0.0,
        0.0,
        0.0,
        0.0,
        5.172366057160793e-19,
        -0.002329426584765315,
        0.0,
        0.0,
        0.002329426584765315,
        5.172366057160793e-19,
        0.0,
        0.0,
        0.0,
        0.0,
        1.0
      ],
      "name": "Sketchfab_model"
    },
    {
      "children": [
        2,
        3,
        4,
        5,
        6,
        7,
        8,
        9
      ],
      "name": "young_autobot.obj.cleaner.materialmerger.gles"
    },
    {
      "mesh": 0,
      "name": "Object_2"
    },
    {
      "mesh": 1,
      "name": "Object_3"
    },
    {
      "mesh": 2,
      "name": "Object_4"
    },
    {
      "mesh": 3,
      "name": "Object_5"
    },
    {
      "mesh": 4,
      "name": "Object_6"
    },
    {
      "mesh": 5,
      "name": "Object_7"
    },
    {
      "mesh": 6,
      "name": "Object_8"
    },
    {
      "mesh": 7,
      "name": "Object_9"
    }
  ],
  "samplers": [
    {
      "magFilter": 9729,
      "minFilter": 9987,
      "wrapS": 10497,
      "wrapT": 10497
    }
  ],
  "scene": 0,
  "scenes": [
    {
      "name": "Sketchfab_Scene",
      "nodes": [
        0
      ]
    }
  ],
  "textures": [
    {
      "sampler": 0,
      "source": 0
    },
    {
      "sampler": 0,
      "source": 1
    },
    {
      "sampler": 0,
      "source": 2
    }
  ]
}
